<svg width="21" height="18" viewBox="0 0 21 18" fill="none" xmlns="http://www.w3.org/2000/svg">
<path fill-rule="evenodd" clip-rule="evenodd" d="M21 8.99975C21 9.33127 20.8683 9.64921 20.6339 9.88363C20.3994 10.1181 20.0815 10.2497 19.75 10.2497H5.26748L10.635 15.6147C10.7512 15.731 10.8434 15.8689 10.9063 16.0208C10.9692 16.1726 11.0016 16.3354 11.0016 16.4997C11.0016 16.6641 10.9692 16.8269 10.9063 16.9787C10.8434 17.1306 10.7512 17.2685 10.635 17.3847C10.5188 17.501 10.3808 17.5932 10.2289 17.6561C10.0771 17.719 9.91434 17.7513 9.74998 17.7513C9.58562 17.7513 9.42287 17.719 9.27102 17.6561C9.11917 17.5932 8.9812 17.501 8.86498 17.3847L1.36498 9.88475C1.24857 9.76863 1.15621 9.63069 1.09319 9.47883C1.03018 9.32697 0.997742 9.16417 0.997742 8.99975C0.997742 8.83533 1.03018 8.67253 1.09319 8.52066C1.15621 8.3688 1.24857 8.23086 1.36498 8.11475L8.86498 0.614748C9.09969 0.380032 9.41804 0.248169 9.74998 0.248169C10.0819 0.248169 10.4003 0.380032 10.635 0.614748C10.8697 0.849465 11.0016 1.16781 11.0016 1.49975C11.0016 1.83169 10.8697 2.15003 10.635 2.38475L5.26748 7.74975H19.75C20.0815 7.74975 20.3994 7.88144 20.6339 8.11587C20.8683 8.35029 21 8.66823 21 8.99975Z" fill="white"/>
</svg>
