<svg width="16" height="16" viewBox="0 0 16 16" fill="none" xmlns="http://www.w3.org/2000/svg">
<path fill-rule="evenodd" clip-rule="evenodd" d="M12 8.00002C12 8.13263 11.9473 8.25981 11.8536 8.35358C11.7598 8.44734 11.6326 8.50002 11.5 8.50002H5.70701L7.85401 10.646C7.9005 10.6925 7.93737 10.7477 7.96253 10.8084C7.98769 10.8692 8.00064 10.9343 8.00064 11C8.00064 11.0658 7.98769 11.1309 7.96253 11.1916C7.93737 11.2523 7.9005 11.3075 7.85401 11.354C7.80752 11.4005 7.75233 11.4374 7.69159 11.4625C7.63085 11.4877 7.56575 11.5007 7.50001 11.5007C7.43426 11.5007 7.36916 11.4877 7.30843 11.4625C7.24769 11.4374 7.1925 11.4005 7.14601 11.354L4.14601 8.35402C4.09945 8.30758 4.0625 8.2524 4.0373 8.19165C4.01209 8.13091 3.99911 8.06579 3.99911 8.00002C3.99911 7.93425 4.01209 7.86913 4.0373 7.80839C4.0625 7.74764 4.09945 7.69247 4.14601 7.64602L7.14601 4.64602C7.2399 4.55213 7.36723 4.49939 7.50001 4.49939C7.63278 4.49939 7.76012 4.55213 7.85401 4.64602C7.9479 4.73991 8.00064 4.86725 8.00064 5.00002C8.00064 5.1328 7.9479 5.26013 7.85401 5.35402L5.70701 7.50002H11.5C11.6326 7.50002 11.7598 7.5527 11.8536 7.64647C11.9473 7.74024 12 7.86741 12 8.00002Z" fill="black"/>
</svg>
